<mxfile host="app.diagrams.net" modified="2024-05-20T02:31:54.230Z" agent="Mozilla/5.0 (Windows NT 10.0; Win64; x64) AppleWebKit/537.36 (KHTML, like Gecko) Chrome/125.0.0.0 Safari/537.36 Edg/125.0.0.0" etag="CTOZDHdSjqQlvRqff4O8" version="24.4.4" type="github">
  <diagram name="第 1 页" id="4D73sQxTLWBu-hPYvA0C">
    <mxGraphModel dx="908" dy="591" grid="1" gridSize="10" guides="1" tooltips="1" connect="1" arrows="1" fold="1" page="1" pageScale="1" pageWidth="827" pageHeight="1169" math="0" shadow="0">
      <root>
        <mxCell id="0" />
        <mxCell id="1" parent="0" />
        <mxCell id="Z6pAk5ewVCMAX08WyuHA-3" value="Pool" style="swimlane;childLayout=stackLayout;resizeParent=1;resizeParentMax=0;horizontal=1;startSize=20;horizontalStack=0;html=1;" vertex="1" parent="1">
          <mxGeometry x="120" y="80" width="580" height="460" as="geometry" />
        </mxCell>
        <mxCell id="Z6pAk5ewVCMAX08WyuHA-4" value="Lane 1" style="swimlane;startSize=20;horizontal=0;html=1;" vertex="1" parent="Z6pAk5ewVCMAX08WyuHA-3">
          <mxGeometry y="20" width="580" height="200" as="geometry">
            <mxRectangle y="20" width="580" height="30" as="alternateBounds" />
          </mxGeometry>
        </mxCell>
        <mxCell id="Z6pAk5ewVCMAX08WyuHA-7" value="" style="shape=datastore;whiteSpace=wrap;html=1;fillColor=#dae8fc;strokeColor=#6c8ebf;" vertex="1" parent="Z6pAk5ewVCMAX08WyuHA-4">
          <mxGeometry x="90" y="40" width="60" height="60" as="geometry" />
        </mxCell>
        <mxCell id="Z6pAk5ewVCMAX08WyuHA-5" value="Lane 2" style="swimlane;startSize=20;horizontal=0;html=1;" vertex="1" parent="Z6pAk5ewVCMAX08WyuHA-3">
          <mxGeometry y="220" width="580" height="120" as="geometry" />
        </mxCell>
        <mxCell id="Z6pAk5ewVCMAX08WyuHA-6" value="Lane 3" style="swimlane;startSize=20;horizontal=0;html=1;" vertex="1" parent="Z6pAk5ewVCMAX08WyuHA-3">
          <mxGeometry y="340" width="580" height="120" as="geometry" />
        </mxCell>
      </root>
    </mxGraphModel>
  </diagram>
</mxfile>
